<mxfile host="65bd71144e">
    <diagram id="hOGEXghAGn76DvfYyxrh" name="Page-1">
        <mxGraphModel dx="643" dy="2018" grid="1" gridSize="10" guides="1" tooltips="1" connect="1" arrows="1" fold="1" page="1" pageScale="1" pageWidth="850" pageHeight="1100" math="0" shadow="0">
            <root>
                <mxCell id="0"/>
                <mxCell id="1" parent="0"/>
                <mxCell id="78" style="edgeStyle=none;html=1;exitX=0.5;exitY=1;exitDx=0;exitDy=0;strokeWidth=3;endArrow=none;endFill=0;fontFamily=Helvetica;fontStyle=0;fontColor=#FFFFFF;fontSize=13;startArrow=none;labelBackgroundColor=default;" edge="1" parent="1" target="77" source="86">
                    <mxGeometry relative="1" as="geometry">
                        <mxPoint x="536.408098158668" y="320" as="sourcePoint"/>
                    </mxGeometry>
                </mxCell>
                <mxCell id="39" value="&lt;h1&gt;&lt;font style=&quot;font-size: 32px;&quot;&gt;fin&lt;/font&gt;&lt;/h1&gt;" style="ellipse;whiteSpace=wrap;html=1;fontSize=20;verticalAlign=middle;" vertex="1" parent="1">
                    <mxGeometry x="1705" y="-790" width="260" height="752.5" as="geometry"/>
                </mxCell>
                <mxCell id="67" value="" style="group" vertex="1" connectable="0" parent="1">
                    <mxGeometry x="135" y="-900" width="1484.5" height="950" as="geometry"/>
                </mxCell>
                <mxCell id="2" style="edgeStyle=none;html=1;exitX=1;exitY=0.5;exitDx=0;exitDy=0;strokeWidth=3;fontSize=13;endArrow=none;endFill=0;rounded=0;entryX=0;entryY=0.5;entryDx=0;entryDy=0;fontFamily=Helvetica;fontStyle=1;fontColor=#FFFFFF;labelBackgroundColor=default;" edge="1" parent="67" source="3" target="18">
                    <mxGeometry relative="1" as="geometry">
                        <mxPoint x="510" y="470" as="targetPoint"/>
                        <Array as="points">
                            <mxPoint x="140" y="505"/>
                            <mxPoint x="140" y="260"/>
                            <mxPoint x="323" y="260"/>
                            <mxPoint x="320" y="750"/>
                            <mxPoint x="560" y="750"/>
                            <mxPoint x="560" y="475"/>
                        </Array>
                    </mxGeometry>
                </mxCell>
                <mxCell id="18" value="&lt;font style=&quot;font-size: 13px;&quot;&gt;num == numeropropuesto&lt;/font&gt;" style="rhombus;whiteSpace=wrap;html=1;fontFamily=Helvetica;fontStyle=1;fontColor=#FFFFFF;labelBackgroundColor=default;fontSize=13;" vertex="1" parent="67">
                    <mxGeometry x="730" y="381.25" width="240" height="187.5" as="geometry"/>
                </mxCell>
                <mxCell id="17" style="edgeStyle=none;html=1;exitX=0.5;exitY=1;exitDx=0;exitDy=0;strokeWidth=3;fontSize=13;endArrow=none;endFill=0;entryX=0;entryY=0;entryDx=0;entryDy=75;rounded=0;entryPerimeter=0;fontFamily=Helvetica;fontStyle=1;fontColor=#FFFFFF;labelBackgroundColor=default;" edge="1" parent="67" source="18" target="53">
                    <mxGeometry relative="1" as="geometry">
                        <mxPoint x="960" y="875" as="targetPoint"/>
                        <Array as="points">
                            <mxPoint x="850" y="875"/>
                        </Array>
                    </mxGeometry>
                </mxCell>
                <mxCell id="26" value="&lt;div style=&quot;line-height: 16px; font-size: 13px;&quot;&gt;precio &lt;span style=&quot;font-size: 13px;&quot;&gt;&amp;gt;&lt;/span&gt; cantidadEntregada&lt;/div&gt;" style="shape=card;whiteSpace=wrap;html=1;size=0;fontFamily=Helvetica;fontColor=#FFFFFF;labelBackgroundColor=default;fontStyle=1;fontSize=13;" vertex="1" parent="67">
                    <mxGeometry x="1000" width="480" height="140" as="geometry"/>
                </mxCell>
                <mxCell id="16" style="edgeStyle=none;html=1;exitX=0.5;exitY=0;exitDx=0;exitDy=0;strokeWidth=3;fontSize=13;endArrow=none;endFill=0;entryX=0;entryY=0;entryDx=0;entryDy=85;entryPerimeter=0;rounded=0;fontFamily=Helvetica;fontStyle=1;fontColor=#FFFFFF;labelBackgroundColor=default;" edge="1" parent="67" source="18" target="26">
                    <mxGeometry relative="1" as="geometry">
                        <mxPoint x="849" y="70" as="targetPoint"/>
                        <Array as="points">
                            <mxPoint x="850" y="85"/>
                        </Array>
                    </mxGeometry>
                </mxCell>
                <mxCell id="31" value="if&amp;nbsp;" style="text;html=1;strokeColor=none;fillColor=none;align=center;verticalAlign=middle;whiteSpace=wrap;rounded=0;fontSize=13;fontFamily=Helvetica;fontStyle=1;fontColor=#FFFFFF;labelBackgroundColor=default;" vertex="1" parent="67">
                    <mxGeometry x="790" y="310" width="60" height="30" as="geometry"/>
                </mxCell>
                <mxCell id="54" value="&lt;font style=&quot;font-size: 13px;&quot;&gt;else&lt;/font&gt;" style="text;html=1;strokeColor=none;fillColor=none;align=center;verticalAlign=middle;whiteSpace=wrap;rounded=0;fontSize=13;fontFamily=Helvetica;fontStyle=1;fontColor=#FFFFFF;labelBackgroundColor=default;" vertex="1" parent="67">
                    <mxGeometry x="780" y="610" width="60" height="30" as="geometry"/>
                </mxCell>
                <mxCell id="53" value="&lt;div style=&quot;font-size: 13px; line-height: 16px;&quot;&gt;&lt;span style=&quot;font-size: 13px;&quot;&gt;calcularVuelto&lt;/span&gt;(precio, cantidadEntregada)&lt;/div&gt;" style="shape=card;whiteSpace=wrap;html=1;fontSize=13;size=0;fontFamily=Helvetica;fontColor=#FFFFFF;labelBackgroundColor=default;fontStyle=1;" vertex="1" parent="67">
                    <mxGeometry x="1000" y="804" width="460" height="150" as="geometry"/>
                </mxCell>
                <mxCell id="60" value="&lt;div style=&quot;line-height: 16px; font-size: 13px;&quot;&gt;precio &lt;span style=&quot;font-size: 13px;&quot;&gt;==&lt;/span&gt; cantidadEntregada&lt;/div&gt;" style="whiteSpace=wrap;html=1;fontFamily=Helvetica;fontColor=#FFFFFF;labelBackgroundColor=default;fontStyle=1;fontSize=13;" vertex="1" parent="67">
                    <mxGeometry x="1004.5" y="432.5" width="480" height="85" as="geometry"/>
                </mxCell>
                <mxCell id="61" value="" style="edgeStyle=none;html=1;fontFamily=Helvetica;fontSize=13;fontColor=#FFFFFF;strokeWidth=3;endArrow=none;endFill=0;labelBackgroundColor=default;fontStyle=1;" edge="1" parent="67" source="18" target="60">
                    <mxGeometry relative="1" as="geometry"/>
                </mxCell>
                <mxCell id="62" value="&lt;div style=&quot;line-height: 16px; font-size: 13px;&quot;&gt;&lt;span style=&quot;font-size: 13px;&quot;&gt;&amp;gt;&amp;gt;&amp;gt; Ingrese el precio del artículo: &lt;/span&gt;&lt;/div&gt;" style="rounded=1;whiteSpace=wrap;html=1;fontFamily=Helvetica;fontColor=#FFFFFF;labelBackgroundColor=default;fontStyle=1;fontSize=13;" vertex="1" parent="67">
                    <mxGeometry x="1005" y="175" width="470" height="135" as="geometry"/>
                </mxCell>
                <mxCell id="65" style="edgeStyle=none;html=1;exitX=0.5;exitY=1;exitDx=0;exitDy=0;exitPerimeter=0;entryX=0.5;entryY=0;entryDx=0;entryDy=0;strokeWidth=3;fontFamily=Helvetica;fontSize=13;fontColor=#FFFFFF;endArrow=none;endFill=0;labelBackgroundColor=default;fontStyle=1;" edge="1" parent="67" source="26" target="62">
                    <mxGeometry relative="1" as="geometry"/>
                </mxCell>
                <mxCell id="63" value="&lt;div style=&quot;line-height: 16px; font-size: 13px;&quot;&gt;&lt;span style=&quot;font-size: 13px;&quot;&gt;&amp;gt;&amp;gt;&amp;gt; Ingrese el precio del artículo: &lt;/span&gt;&lt;/div&gt;" style="rounded=1;whiteSpace=wrap;html=1;fontFamily=Helvetica;fontColor=#FFFFFF;labelBackgroundColor=default;fontStyle=1;fontSize=13;" vertex="1" parent="67">
                    <mxGeometry x="1009.5" y="540" width="470" height="135" as="geometry"/>
                </mxCell>
                <mxCell id="3" value="&lt;h1 style=&quot;font-size: 13px;&quot;&gt;&lt;font style=&quot;font-size: 13px;&quot;&gt;Inicio&lt;/font&gt;&lt;/h1&gt;" style="ellipse;whiteSpace=wrap;html=1;fontFamily=Helvetica;fontStyle=1;fontColor=#FFFFFF;labelBackgroundColor=default;fontSize=13;" vertex="1" parent="67">
                    <mxGeometry y="470" width="90" height="80" as="geometry"/>
                </mxCell>
                <mxCell id="4" value="&lt;div style=&quot;line-height: 16px; font-size: 13px;&quot;&gt;&lt;span style=&quot;font-size: 13px;&quot;&gt;float&lt;/span&gt; precio, cantidadEntregada&lt;/div&gt;" style="rounded=0;whiteSpace=wrap;html=1;fontFamily=Helvetica;fontStyle=1;fontColor=#FFFFFF;labelBackgroundColor=default;fontSize=13;" vertex="1" parent="67">
                    <mxGeometry x="175" y="310" width="315" height="40" as="geometry"/>
                </mxCell>
                <mxCell id="5" value="&lt;div style=&quot;line-height: 16px; font-size: 13px;&quot;&gt;&lt;span style=&quot;font-size: 13px;&quot;&gt;&amp;gt;&amp;gt;&amp;gt; Ingrese el precio del artículo: &lt;/span&gt;&lt;/div&gt;" style="rounded=1;whiteSpace=wrap;html=1;fontFamily=Helvetica;fontStyle=1;fontColor=#FFFFFF;labelBackgroundColor=default;fontSize=13;" vertex="1" parent="67">
                    <mxGeometry x="175" y="370" width="315" height="45" as="geometry"/>
                </mxCell>
                <mxCell id="24" value="&lt;div style=&quot;line-height: 16px; font-size: 13px;&quot;&gt;&lt;span style=&quot;font-size: 13px;&quot;&gt;&amp;gt;&amp;gt;&amp;gt; Ingrese la cantidad entregada por el consumidor: &lt;/span&gt;&lt;/div&gt;" style="rounded=1;whiteSpace=wrap;html=1;fontFamily=Helvetica;fontStyle=1;fontColor=#FFFFFF;labelBackgroundColor=default;fontSize=13;" vertex="1" parent="67">
                    <mxGeometry x="175" y="510" width="315" height="40" as="geometry"/>
                </mxCell>
                <mxCell id="55" value="&lt;div style=&quot;line-height: 16px; font-size: 13px;&quot;&gt;precio&lt;/div&gt;" style="shape=parallelogram;perimeter=parallelogramPerimeter;whiteSpace=wrap;html=1;fixedSize=1;rounded=0;glass=0;strokeColor=default;fontFamily=Helvetica;fontSize=13;fontColor=#FFFFFF;fillColor=default;fontStyle=1;labelBackgroundColor=default;" vertex="1" parent="67">
                    <mxGeometry x="167.5" y="435" width="330" height="45" as="geometry"/>
                </mxCell>
                <mxCell id="56" value="&lt;div style=&quot;font-size: 13px; line-height: 16px;&quot;&gt;&lt;div style=&quot;font-size: 13px;&quot;&gt;&lt;span style=&quot;font-size: 13px;&quot;&gt;cantidadEntregada&lt;/span&gt;&lt;/div&gt;&lt;/div&gt;" style="shape=parallelogram;perimeter=parallelogramPerimeter;whiteSpace=wrap;html=1;fixedSize=1;rounded=0;glass=0;strokeColor=default;fontFamily=Helvetica;fontSize=13;fontColor=#FFFFFF;fillColor=default;fontStyle=1;labelBackgroundColor=default;" vertex="1" parent="67">
                    <mxGeometry x="167.5" y="575" width="330" height="45" as="geometry"/>
                </mxCell>
                <mxCell id="64" style="edgeStyle=none;html=1;exitX=0.5;exitY=1;exitDx=0;exitDy=0;entryX=0.5;entryY=0;entryDx=0;entryDy=0;strokeWidth=3;fontFamily=Helvetica;fontSize=13;fontColor=#FFFFFF;endArrow=none;endFill=0;labelBackgroundColor=default;fontStyle=1;" edge="1" parent="67" source="60" target="63">
                    <mxGeometry relative="1" as="geometry"/>
                </mxCell>
                <mxCell id="163" value="&lt;font style=&quot;font-size: 13px;&quot;&gt;else if&lt;/font&gt;" style="text;html=1;strokeColor=none;fillColor=none;align=center;verticalAlign=middle;whiteSpace=wrap;rounded=0;fontSize=13;fontFamily=Helvetica;fontStyle=1;fontColor=#FFFFFF;labelBackgroundColor=default;" vertex="1" parent="67">
                    <mxGeometry x="940" y="415" width="60" height="30" as="geometry"/>
                </mxCell>
                <mxCell id="164" value="&lt;h1&gt;&lt;font color=&quot;#ffffff&quot;&gt;Caso 4&lt;/font&gt;&lt;/h1&gt;&lt;h1&gt;&lt;div style=&quot;font-size: 14px; line-height: 19px;&quot;&gt;&lt;h4 style=&quot;&quot;&gt;&lt;div style=&quot;&quot;&gt;&lt;span style=&quot;font-size: 16px; font-weight: 400;&quot;&gt;&lt;font style=&quot;&quot; color=&quot;#ffffff&quot;&gt;Disponemos de una maquina que puede dar vuelto con 5 tipos de monedas distintas: 100, 50, 25, 5 y 1 centavos. Realice un algoritmos que dado el precio del articulo y la cantidad entregada por el consumidor nos indique el vuelto a entregar empleando el menor numero posible de monedas.&lt;/font&gt;&lt;/span&gt;&lt;br&gt;&lt;/div&gt;&lt;/h4&gt;&lt;/div&gt;&lt;/h1&gt;" style="text;html=1;strokeColor=none;fillColor=none;spacing=5;spacingTop=-20;whiteSpace=wrap;overflow=hidden;rounded=0;labelBackgroundColor=none;fontSize=11;fontColor=#D9D9D9;" vertex="1" parent="67">
                    <mxGeometry x="-65" y="-50" width="420" height="240" as="geometry"/>
                </mxCell>
                <mxCell id="68" style="edgeStyle=none;html=1;exitX=1;exitY=0.5;exitDx=0;exitDy=0;entryX=0;entryY=0.5;entryDx=0;entryDy=0;labelBackgroundColor=default;strokeWidth=3;fontFamily=Helvetica;fontSize=13;fontColor=#FFFFFF;endArrow=none;endFill=0;" edge="1" parent="1" source="63" target="39">
                    <mxGeometry relative="1" as="geometry"/>
                </mxCell>
                <mxCell id="69" style="edgeStyle=none;html=1;exitX=1;exitY=0.5;exitDx=0;exitDy=0;exitPerimeter=0;labelBackgroundColor=default;strokeWidth=3;fontFamily=Helvetica;fontSize=13;fontColor=#FFFFFF;endArrow=none;endFill=0;" edge="1" parent="1" source="53">
                    <mxGeometry relative="1" as="geometry">
                        <mxPoint x="1705" y="-419.9999999999998" as="targetPoint"/>
                    </mxGeometry>
                </mxCell>
                <mxCell id="70" style="edgeStyle=none;html=1;exitX=1;exitY=0.5;exitDx=0;exitDy=0;labelBackgroundColor=default;strokeWidth=3;fontFamily=Helvetica;fontSize=13;fontColor=#FFFFFF;endArrow=none;endFill=0;" edge="1" parent="1" source="62">
                    <mxGeometry relative="1" as="geometry">
                        <mxPoint x="1705" y="-409.9999999999998" as="targetPoint"/>
                    </mxGeometry>
                </mxCell>
                <mxCell id="86" value="&lt;h1 style=&quot;font-size: 25px;&quot;&gt;&lt;div style=&quot;font-size: 25px; line-height: 16px;&quot;&gt;&lt;span style=&quot;font-size: 25px;&quot;&gt;calcularVuelto&lt;/span&gt;&lt;/div&gt;&lt;/h1&gt;" style="ellipse;whiteSpace=wrap;html=1;fontFamily=Helvetica;fontStyle=0;fontColor=#FFFFFF;labelBackgroundColor=default;fontSize=25;" vertex="1" parent="1">
                    <mxGeometry x="416.4100000000001" y="160" width="240" height="80" as="geometry"/>
                </mxCell>
                <mxCell id="77" value="&lt;div style=&quot;line-height: 16px; font-size: 13px;&quot;&gt;&lt;div style=&quot;font-size: 12px; line-height: 16px;&quot;&gt;&lt;span style=&quot;&quot;&gt;float&lt;/span&gt; vuelto &lt;span style=&quot;&quot;&gt;=&lt;/span&gt; &lt;span style=&quot;&quot;&gt;cantidadEntregada&lt;/span&gt; &lt;span style=&quot;&quot;&gt;-&lt;/span&gt; &lt;span style=&quot;&quot;&gt;precio&lt;/span&gt;&lt;/div&gt;&lt;/div&gt;" style="rounded=0;whiteSpace=wrap;html=1;fontColor=#FFFFFF;labelBackgroundColor=default;fontFamily=Helvetica;fontStyle=0;fontSize=13;" vertex="1" parent="1">
                    <mxGeometry x="421.51" y="259.99692307692305" width="229.79619631733647" height="47.30769230769231" as="geometry"/>
                </mxCell>
                <mxCell id="79" style="edgeStyle=none;html=1;entryX=0.5;entryY=0;entryDx=0;entryDy=0;strokeWidth=3;endArrow=none;endFill=0;exitX=0.5;exitY=1;exitDx=0;exitDy=0;fillColor=#e51400;strokeColor=#B20000;fontFamily=Helvetica;fontStyle=0;fontColor=#FFFFFF;fontSize=13;labelBackgroundColor=default;" edge="1" parent="1" source="82" target="105">
                    <mxGeometry relative="1" as="geometry">
                        <mxPoint x="535.8180981586681" y="660.7646153846154" as="sourcePoint"/>
                        <mxPoint x="535.8180981586681" y="755.38" as="targetPoint"/>
                    </mxGeometry>
                </mxCell>
                <mxCell id="80" value="i &amp;gt; 5" style="edgeLabel;html=1;align=center;verticalAlign=middle;resizable=0;points=[];fontSize=13;fontFamily=Helvetica;fontColor=#FFFFFF;fontStyle=0;labelBackgroundColor=default;" vertex="1" connectable="0" parent="79">
                    <mxGeometry x="0.0192" y="1" relative="1" as="geometry">
                        <mxPoint x="1" as="offset"/>
                    </mxGeometry>
                </mxCell>
                <mxCell id="71" value="" style="edgeStyle=none;html=1;strokeWidth=3;endArrow=none;endFill=0;rounded=0;fillColor=#6d8764;strokeColor=#3A5431;fontFamily=Helvetica;fontStyle=0;fontColor=#FFFFFF;fontSize=13;labelBackgroundColor=default;" edge="1" parent="1" target="98">
                    <mxGeometry relative="1" as="geometry">
                        <mxPoint x="594.9964239821566" y="639.9969230769232" as="sourcePoint"/>
                        <Array as="points">
                            <mxPoint x="595" y="750"/>
                        </Array>
                        <mxPoint x="886.7643572865081" y="703.0738461538461" as="targetPoint"/>
                    </mxGeometry>
                </mxCell>
                <mxCell id="72" value="&amp;nbsp; 0 &amp;lt; i &amp;lt; 5&amp;nbsp;&amp;nbsp;" style="edgeLabel;html=1;align=center;verticalAlign=middle;resizable=0;points=[];fontSize=13;fontFamily=Helvetica;fontStyle=0;fontColor=#FFFFFF;labelBackgroundColor=default;" vertex="1" connectable="0" parent="71">
                    <mxGeometry x="0.4102" y="1" relative="1" as="geometry">
                        <mxPoint x="-26" y="1" as="offset"/>
                    </mxGeometry>
                </mxCell>
                <mxCell id="75" value="&lt;div style=&quot;font-size: 12px; line-height: 16px;&quot;&gt;&lt;div style=&quot;line-height: 16px;&quot;&gt;vuelto &lt;span style=&quot;&quot;&gt;=&lt;/span&gt; &lt;span style=&quot;&quot;&gt;fmod&lt;/span&gt;(vuelto, monedas[i])&lt;/div&gt;&lt;/div&gt;" style="whiteSpace=wrap;html=1;fontFamily=Helvetica;fontStyle=0;fontColor=#FFFFFF;fontSize=13;labelBackgroundColor=default;" vertex="1" parent="1">
                    <mxGeometry x="895.0831282274221" y="570" width="224.436871772578" height="94.61538461538461" as="geometry"/>
                </mxCell>
                <mxCell id="76" value="" style="edgeStyle=none;html=1;strokeWidth=3;fontSize=13;endArrow=none;endFill=0;entryX=0.579;entryY=1.01;entryDx=0;entryDy=0;entryPerimeter=0;fontFamily=Helvetica;fontStyle=0;fontColor=#FFFFFF;labelBackgroundColor=default;" edge="1" parent="1" target="75">
                    <mxGeometry relative="1" as="geometry">
                        <mxPoint x="1025.52" y="710" as="sourcePoint"/>
                    </mxGeometry>
                </mxCell>
                <mxCell id="81" style="edgeStyle=none;html=1;exitX=0.5;exitY=1;exitDx=0;exitDy=0;strokeWidth=3;endArrow=none;endFill=0;entryX=0.5;entryY=0;entryDx=0;entryDy=0;fontFamily=Helvetica;fontStyle=0;fontColor=#FFFFFF;fontSize=13;labelBackgroundColor=default;" edge="1" parent="1" source="77">
                    <mxGeometry relative="1" as="geometry">
                        <mxPoint x="117.85038028993631" y="-90" as="sourcePoint"/>
                        <mxPoint x="536.408098158668" y="588.0769230769231" as="targetPoint"/>
                    </mxGeometry>
                </mxCell>
                <mxCell id="82" value="for i = 0 to 5&amp;nbsp;" style="rhombus;whiteSpace=wrap;html=1;fontFamily=Helvetica;fontStyle=0;fontColor=#FFFFFF;fontSize=13;labelBackgroundColor=default;" vertex="1" parent="1">
                    <mxGeometry x="466.47012536643547" y="530.0023076923077" width="139.87594558446568" height="173.46153846153845" as="geometry"/>
                </mxCell>
                <mxCell id="83" style="edgeStyle=none;html=1;exitX=0;exitY=0.5;exitDx=0;exitDy=0;strokeWidth=3;fontSize=13;endArrow=classic;endFill=1;entryX=1;entryY=0.5;entryDx=0;entryDy=0;rounded=0;endSize=0;fontFamily=Helvetica;fontStyle=0;fontColor=#FFFFFF;labelBackgroundColor=default;" edge="1" parent="1" source="75" target="82">
                    <mxGeometry relative="1" as="geometry">
                        <mxPoint x="2440.9114425756316" y="44.03846153846155" as="targetPoint"/>
                        <Array as="points"/>
                    </mxGeometry>
                </mxCell>
                <mxCell id="84" value="&amp;nbsp; i incrementa 1&amp;nbsp;&amp;nbsp;" style="edgeLabel;html=1;align=center;verticalAlign=middle;resizable=0;points=[];fontSize=13;fontFamily=Helvetica;fontStyle=0;fontColor=#FFFFFF;labelBackgroundColor=default;" vertex="1" connectable="0" parent="83">
                    <mxGeometry x="-0.375" y="-2" relative="1" as="geometry">
                        <mxPoint as="offset"/>
                    </mxGeometry>
                </mxCell>
                <mxCell id="87" value="&lt;div style=&quot;line-height: 16px; font-size: 13px;&quot;&gt;&lt;div style=&quot;font-size: 12px; line-height: 16px;&quot;&gt;&lt;div style=&quot;line-height: 16px;&quot;&gt;&lt;span style=&quot;&quot;&gt;float&lt;/span&gt; monedas[] &lt;span style=&quot;&quot;&gt;=&lt;/span&gt; {&lt;span style=&quot;&quot;&gt;1&lt;/span&gt;, &lt;span style=&quot;&quot;&gt;0.50&lt;/span&gt;, &lt;span style=&quot;&quot;&gt;0.25&lt;/span&gt;, &lt;span style=&quot;&quot;&gt;0.05&lt;/span&gt;, &lt;span style=&quot;&quot;&gt;0.01&lt;/span&gt;}&lt;/div&gt;&lt;/div&gt;&lt;/div&gt;" style="rounded=0;whiteSpace=wrap;html=1;fontColor=#FFFFFF;labelBackgroundColor=default;fontFamily=Helvetica;fontStyle=0;fontSize=13;" vertex="1" parent="1">
                    <mxGeometry x="421.51" y="319.9969230769231" width="229.79619631733647" height="47.30769230769231" as="geometry"/>
                </mxCell>
                <mxCell id="95" value="&lt;div style=&quot;line-height: 16px; font-size: 13px;&quot;&gt;&lt;div style=&quot;font-size: 12px; line-height: 16px;&quot;&gt;&lt;div style=&quot;line-height: 16px;&quot;&gt;&lt;div style=&quot;line-height: 16px;&quot;&gt;&lt;span style=&quot;&quot;&gt;int&lt;/span&gt; cantidadMonedas[&lt;span style=&quot;&quot;&gt;5&lt;/span&gt;] &lt;span style=&quot;&quot;&gt;=&lt;/span&gt; {&lt;span style=&quot;&quot;&gt;0&lt;/span&gt;}&lt;/div&gt;&lt;/div&gt;&lt;/div&gt;&lt;/div&gt;" style="rounded=0;whiteSpace=wrap;html=1;fontColor=#FFFFFF;labelBackgroundColor=default;fontFamily=Helvetica;fontStyle=0;fontSize=13;" vertex="1" parent="1">
                    <mxGeometry x="421.51" y="379.9969230769231" width="229.79619631733647" height="47.30769230769231" as="geometry"/>
                </mxCell>
                <mxCell id="96" value="&lt;div style=&quot;line-height: 16px; font-size: 13px;&quot;&gt;&lt;div style=&quot;font-size: 12px; line-height: 16px;&quot;&gt;&lt;div style=&quot;line-height: 16px;&quot;&gt;&lt;div style=&quot;line-height: 16px;&quot;&gt;&lt;div style=&quot;line-height: 16px;&quot;&gt;&lt;span style=&quot;&quot;&gt;list&lt;/span&gt;&lt;span style=&quot;&quot;&gt;&amp;lt;&lt;/span&gt;&lt;span style=&quot;&quot;&gt;string&lt;/span&gt;&lt;span style=&quot;&quot;&gt;&amp;gt;&lt;/span&gt; listaTextos&lt;/div&gt;&lt;/div&gt;&lt;/div&gt;&lt;/div&gt;&lt;/div&gt;" style="rounded=0;whiteSpace=wrap;html=1;fontColor=#FFFFFF;labelBackgroundColor=default;fontFamily=Helvetica;fontStyle=0;fontSize=13;" vertex="1" parent="1">
                    <mxGeometry x="421.51" y="439.9969230769231" width="229.79619631733647" height="47.30769230769231" as="geometry"/>
                </mxCell>
                <mxCell id="98" value="&lt;div style=&quot;font-size: 12px; line-height: 16px;&quot;&gt;cantidadMonedas[i] &lt;span style=&quot;&quot;&gt;=&lt;/span&gt; vuelto &lt;span style=&quot;&quot;&gt;/&lt;/span&gt; monedas[i]&lt;/div&gt;" style="whiteSpace=wrap;html=1;fontFamily=Helvetica;fontStyle=0;fontColor=#FFFFFF;fontSize=13;labelBackgroundColor=default;" vertex="1" parent="1">
                    <mxGeometry x="895.0831282274221" y="703.46" width="224.436871772578" height="94.61538461538461" as="geometry"/>
                </mxCell>
                <mxCell id="109" value="" style="group;fontFamily=Helvetica;fontStyle=0;fontColor=#FFFFFF;labelBackgroundColor=default;" vertex="1" connectable="0" parent="1">
                    <mxGeometry x="466.47012536643547" y="798.0723076923077" width="653.0498746335645" height="268.0730769230769" as="geometry"/>
                </mxCell>
                <mxCell id="101" value="" style="edgeStyle=none;html=1;strokeWidth=3;endArrow=none;endFill=0;rounded=0;fillColor=#6d8764;strokeColor=#3A5431;fontFamily=Helvetica;fontStyle=0;fontColor=#FFFFFF;fontSize=13;entryX=0;entryY=0.5;entryDx=0;entryDy=0;labelBackgroundColor=default;" edge="1" parent="109" target="110">
                    <mxGeometry relative="1" as="geometry">
                        <mxPoint x="128.5262986157211" y="109.99461538461514" as="sourcePoint"/>
                        <Array as="points">
                            <mxPoint x="128.52987463356453" y="219.9976923076922"/>
                        </Array>
                        <mxPoint x="420.29423192007255" y="173.07153846153847" as="targetPoint"/>
                    </mxGeometry>
                </mxCell>
                <mxCell id="102" value="&amp;nbsp; 0 &amp;lt; i &amp;lt; 5&amp;nbsp;&amp;nbsp;" style="edgeLabel;html=1;align=center;verticalAlign=middle;resizable=0;points=[];fontSize=13;fontFamily=Helvetica;fontStyle=0;fontColor=#FFFFFF;labelBackgroundColor=default;" vertex="1" connectable="0" parent="101">
                    <mxGeometry x="0.4102" y="1" relative="1" as="geometry">
                        <mxPoint x="-26" y="1" as="offset"/>
                    </mxGeometry>
                </mxCell>
                <mxCell id="104" value="" style="edgeStyle=none;html=1;strokeWidth=3;fontSize=13;endArrow=none;endFill=0;entryX=0;entryY=0.5;entryDx=0;entryDy=0;fontFamily=Helvetica;fontStyle=0;fontColor=#FFFFFF;rounded=0;labelBackgroundColor=default;" edge="1" parent="109" target="103">
                    <mxGeometry relative="1" as="geometry">
                        <mxPoint x="408.52987463356453" y="221.92769230769227" as="sourcePoint"/>
                        <Array as="points">
                            <mxPoint x="408.52987463356453" y="91.92769230769227"/>
                        </Array>
                    </mxGeometry>
                </mxCell>
                <mxCell id="123" value="&lt;div style=&quot;font-size: 12px; line-height: 16px;&quot;&gt;cantidadMonedas[i] &lt;span style=&quot;&quot;&gt;==&lt;/span&gt; &lt;span style=&quot;&quot;&gt;1&amp;nbsp;&amp;nbsp;&lt;/span&gt;&lt;/div&gt;" style="edgeLabel;html=1;align=center;verticalAlign=middle;resizable=0;points=[];fontSize=13;fontFamily=Helvetica;fontColor=#FFFFFF;labelBackgroundColor=default;fontStyle=0" vertex="1" connectable="0" parent="104">
                    <mxGeometry x="0.1165" y="-3" relative="1" as="geometry">
                        <mxPoint x="16" y="-24" as="offset"/>
                    </mxGeometry>
                </mxCell>
                <mxCell id="105" value="for i = 0 to 5&amp;nbsp;" style="rhombus;whiteSpace=wrap;html=1;fontFamily=Helvetica;fontStyle=0;fontColor=#FFFFFF;fontSize=13;labelBackgroundColor=default;" vertex="1" parent="109">
                    <mxGeometry width="139.87594558446568" height="173.46153846153845" as="geometry"/>
                </mxCell>
                <mxCell id="110" value="if" style="rhombus;whiteSpace=wrap;html=1;fontSize=13;fontColor=#FFFFFF;fontStyle=0;fontFamily=Helvetica;labelBackgroundColor=default;" vertex="1" parent="109">
                    <mxGeometry x="278.53" y="155.38" width="133.48" height="130.77" as="geometry"/>
                </mxCell>
                <mxCell id="111" value="" style="edgeStyle=none;html=1;labelBackgroundColor=default;strokeWidth=3;fontFamily=Helvetica;fontSize=13;fontColor=#FFFFFF;endArrow=none;endFill=0;fontStyle=0" edge="1" parent="1" source="108" target="110">
                    <mxGeometry relative="1" as="geometry"/>
                </mxCell>
                <mxCell id="126" style="edgeStyle=none;rounded=0;html=1;exitX=1;exitY=0.5;exitDx=0;exitDy=0;entryX=1;entryY=0.5;entryDx=0;entryDy=0;labelBackgroundColor=default;strokeWidth=3;fontFamily=Helvetica;fontSize=12;fontColor=#FFFFFF;endArrow=none;endFill=0;fontStyle=0" edge="1" parent="1" source="108" target="118">
                    <mxGeometry relative="1" as="geometry"/>
                </mxCell>
                <mxCell id="108" value="&lt;div style=&quot;font-size: 12px; line-height: 16px;&quot;&gt;&lt;div style=&quot;line-height: 16px; font-size: 12px;&quot;&gt;&lt;span style=&quot;font-size: 12px;&quot;&gt;ostringstream&lt;/span&gt; ss&lt;/div&gt;&lt;/div&gt;" style="whiteSpace=wrap;html=1;fontFamily=Helvetica;fontStyle=0;fontColor=#FFFFFF;fontSize=12;labelBackgroundColor=default;" vertex="1" parent="1">
                    <mxGeometry x="1075" y="971.53" width="150" height="94.62" as="geometry"/>
                </mxCell>
                <mxCell id="125" style="edgeStyle=none;rounded=0;html=1;exitX=1;exitY=0.5;exitDx=0;exitDy=0;entryX=1;entryY=0.5;entryDx=0;entryDy=0;labelBackgroundColor=default;strokeWidth=3;fontFamily=Helvetica;fontSize=12;fontColor=#FFFFFF;endArrow=none;endFill=0;fontStyle=0" edge="1" parent="1" source="103" target="120">
                    <mxGeometry relative="1" as="geometry"/>
                </mxCell>
                <mxCell id="103" value="&lt;div style=&quot;font-size: 12px; line-height: 16px;&quot;&gt;&lt;div style=&quot;line-height: 16px; font-size: 12px;&quot;&gt;&lt;div style=&quot;line-height: 16px; font-size: 12px;&quot;&gt;&lt;span style=&quot;font-size: 12px;&quot;&gt;ostringstream&lt;/span&gt; ss&lt;/div&gt;&lt;/div&gt;&lt;/div&gt;" style="whiteSpace=wrap;html=1;fontFamily=Helvetica;fontStyle=0;fontColor=#FFFFFF;fontSize=12;labelBackgroundColor=default;" vertex="1" parent="1">
                    <mxGeometry x="1075" y="845" width="150" height="94.62" as="geometry"/>
                </mxCell>
                <mxCell id="106" style="edgeStyle=none;html=1;strokeWidth=3;fontSize=13;endArrow=classic;endFill=1;entryX=1;entryY=0.5;entryDx=0;entryDy=0;rounded=0;endSize=0;fontFamily=Helvetica;fontStyle=0;fontColor=#FFFFFF;labelBackgroundColor=default;" edge="1" parent="1" target="105">
                    <mxGeometry relative="1" as="geometry">
                        <mxPoint x="2440.9114425756316" y="312.10846153846154" as="targetPoint"/>
                        <Array as="points">
                            <mxPoint x="705" y="820"/>
                            <mxPoint x="705" y="885"/>
                        </Array>
                        <mxPoint x="2125" y="820" as="sourcePoint"/>
                    </mxGeometry>
                </mxCell>
                <mxCell id="107" value="&amp;nbsp; i incrementa 1&amp;nbsp;&amp;nbsp;" style="edgeLabel;html=1;align=center;verticalAlign=middle;resizable=0;points=[];fontSize=13;fontFamily=Helvetica;fontStyle=0;fontColor=#FFFFFF;labelBackgroundColor=default;" vertex="1" connectable="0" parent="106">
                    <mxGeometry x="-0.375" y="-2" relative="1" as="geometry">
                        <mxPoint as="offset"/>
                    </mxGeometry>
                </mxCell>
                <mxCell id="114" value="&lt;div style=&quot;font-size: 12px; line-height: 16px;&quot;&gt;&lt;div style=&quot;line-height: 16px; font-size: 12px;&quot;&gt;&lt;div style=&quot;line-height: 16px; font-size: 12px;&quot;&gt;ss &lt;span style=&quot;font-size: 12px;&quot;&gt;&amp;lt;&amp;lt;&lt;/span&gt; &lt;span style=&quot;font-size: 12px;&quot;&gt;fixed&lt;/span&gt; &lt;span style=&quot;font-size: 12px;&quot;&gt;&amp;lt;&amp;lt;&lt;/span&gt; &lt;span style=&quot;font-size: 12px;&quot;&gt;setprecision&lt;/span&gt;(&lt;span style=&quot;font-size: 12px;&quot;&gt;2&lt;/span&gt;) &lt;span style=&quot;font-size: 12px;&quot;&gt;&amp;lt;&amp;lt;&lt;/span&gt; monedas[i]&lt;/div&gt;&lt;/div&gt;&lt;/div&gt;" style="whiteSpace=wrap;html=1;fontFamily=Helvetica;fontStyle=0;fontColor=#FFFFFF;fontSize=12;labelBackgroundColor=default;" vertex="1" parent="1">
                    <mxGeometry x="1255" y="971.53" width="230" height="94.62" as="geometry"/>
                </mxCell>
                <mxCell id="115" value="&lt;div style=&quot;font-size: 12px; line-height: 16px;&quot;&gt;&lt;div style=&quot;line-height: 16px; font-size: 12px;&quot;&gt;&lt;div style=&quot;line-height: 16px; font-size: 12px;&quot;&gt;ss &lt;span style=&quot;font-size: 12px;&quot;&gt;&amp;lt;&amp;lt;&lt;/span&gt; &lt;span style=&quot;font-size: 12px;&quot;&gt;fixed&lt;/span&gt; &lt;span style=&quot;font-size: 12px;&quot;&gt;&amp;lt;&amp;lt;&lt;/span&gt; &lt;span style=&quot;font-size: 12px;&quot;&gt;setprecision&lt;/span&gt;(&lt;span style=&quot;font-size: 12px;&quot;&gt;2&lt;/span&gt;) &lt;span style=&quot;font-size: 12px;&quot;&gt;&amp;lt;&amp;lt;&lt;/span&gt; monedas[i]&lt;/div&gt;&lt;/div&gt;&lt;/div&gt;" style="whiteSpace=wrap;html=1;fontFamily=Helvetica;fontStyle=0;fontColor=#FFFFFF;fontSize=12;labelBackgroundColor=default;" vertex="1" parent="1">
                    <mxGeometry x="1255" y="845" width="230" height="94.62" as="geometry"/>
                </mxCell>
                <mxCell id="116" value="&lt;div style=&quot;font-size: 12px; line-height: 16px;&quot;&gt;&lt;div style=&quot;line-height: 16px; font-size: 12px;&quot;&gt;&lt;div style=&quot;line-height: 16px; font-size: 12px;&quot;&gt;&lt;div style=&quot;line-height: 16px; font-size: 12px;&quot;&gt;&lt;span style=&quot;font-size: 12px;&quot;&gt;string&lt;/span&gt; numeroFormateado &lt;span style=&quot;font-size: 12px;&quot;&gt;=&lt;/span&gt; ss.&lt;span style=&quot;font-size: 12px;&quot;&gt;str&lt;/span&gt;()&lt;/div&gt;&lt;/div&gt;&lt;/div&gt;&lt;/div&gt;" style="whiteSpace=wrap;html=1;fontFamily=Helvetica;fontStyle=0;fontColor=#FFFFFF;fontSize=12;labelBackgroundColor=default;" vertex="1" parent="1">
                    <mxGeometry x="1505" y="845" width="230" height="94.62" as="geometry"/>
                </mxCell>
                <mxCell id="117" value="&lt;div style=&quot;font-size: 12px; line-height: 16px;&quot;&gt;&lt;div style=&quot;line-height: 16px; font-size: 12px;&quot;&gt;&lt;div style=&quot;line-height: 16px; font-size: 12px;&quot;&gt;&lt;div style=&quot;line-height: 16px; font-size: 12px;&quot;&gt;&lt;span style=&quot;font-size: 12px;&quot;&gt;string&lt;/span&gt; numeroFormateado &lt;span style=&quot;font-size: 12px;&quot;&gt;=&lt;/span&gt; ss.&lt;span style=&quot;font-size: 12px;&quot;&gt;str&lt;/span&gt;()&lt;/div&gt;&lt;/div&gt;&lt;/div&gt;&lt;/div&gt;" style="whiteSpace=wrap;html=1;fontFamily=Helvetica;fontStyle=0;fontColor=#FFFFFF;fontSize=12;labelBackgroundColor=default;" vertex="1" parent="1">
                    <mxGeometry x="1505" y="971.53" width="230" height="94.62" as="geometry"/>
                </mxCell>
                <mxCell id="122" style="edgeStyle=none;rounded=0;html=1;exitX=1;exitY=0.5;exitDx=0;exitDy=0;labelBackgroundColor=default;strokeWidth=3;fontFamily=Helvetica;fontSize=12;fontColor=#FFFFFF;endArrow=none;endFill=0;fontStyle=0" edge="1" parent="1" source="118">
                    <mxGeometry relative="1" as="geometry">
                        <mxPoint x="2125" y="890" as="targetPoint"/>
                        <Array as="points">
                            <mxPoint x="2125" y="1019"/>
                        </Array>
                    </mxGeometry>
                </mxCell>
                <mxCell id="118" value="&lt;div style=&quot;font-size: 12px; line-height: 16px;&quot;&gt;&lt;div style=&quot;line-height: 16px; font-size: 12px;&quot;&gt;&lt;div style=&quot;line-height: 16px; font-size: 12px;&quot;&gt;&lt;div style=&quot;line-height: 16px; font-size: 12px;&quot;&gt;&lt;div style=&quot;line-height: 16px; font-size: 12px;&quot;&gt;&lt;div style=&quot;line-height: 16px; font-size: 12px;&quot;&gt;&lt;div style=&quot;line-height: 16px; font-size: 12px;&quot;&gt;listaTextos.&lt;span style=&quot;font-size: 12px;&quot;&gt;push_back&lt;/span&gt; (&lt;span style=&quot;font-size: 12px;&quot;&gt;to_string&lt;/span&gt;(cantidadMonedas[i]) &lt;span style=&quot;font-size: 12px;&quot;&gt;+&lt;/span&gt; &lt;span style=&quot;font-size: 12px;&quot;&gt;&quot; monedas de &quot;&lt;/span&gt; &lt;span style=&quot;font-size: 12px;&quot;&gt;+&lt;/span&gt; numeroFormateado2 &lt;span style=&quot;font-size: 12px;&quot;&gt;+&lt;/span&gt; &lt;span style=&quot;font-size: 12px;&quot;&gt;&quot;$&lt;/span&gt;&lt;span style=&quot;font-size: 12px;&quot;&gt;\n&lt;/span&gt;&lt;span style=&quot;font-size: 12px;&quot;&gt;&quot;&lt;/span&gt;)&lt;/div&gt;&lt;/div&gt;&lt;/div&gt;&lt;/div&gt;&lt;/div&gt;&lt;/div&gt;&lt;/div&gt;" style="whiteSpace=wrap;html=1;fontFamily=Helvetica;fontStyle=0;fontColor=#FFFFFF;fontSize=12;labelBackgroundColor=default;" vertex="1" parent="1">
                    <mxGeometry x="1775" y="971.53" width="230" height="94.62" as="geometry"/>
                </mxCell>
                <mxCell id="121" style="edgeStyle=none;rounded=0;html=1;exitX=1;exitY=0.5;exitDx=0;exitDy=0;labelBackgroundColor=default;strokeWidth=3;fontFamily=Helvetica;fontSize=13;fontColor=#FFFFFF;endArrow=none;endFill=0;fontStyle=0" edge="1" parent="1" source="120">
                    <mxGeometry relative="1" as="geometry">
                        <mxPoint x="2125" y="820" as="targetPoint"/>
                        <Array as="points">
                            <mxPoint x="2125" y="892"/>
                        </Array>
                    </mxGeometry>
                </mxCell>
                <mxCell id="120" value="&lt;div style=&quot;font-size: 12px; line-height: 16px;&quot;&gt;&lt;div style=&quot;line-height: 16px; font-size: 12px;&quot;&gt;&lt;div style=&quot;line-height: 16px; font-size: 12px;&quot;&gt;&lt;div style=&quot;line-height: 16px; font-size: 12px;&quot;&gt;&lt;div style=&quot;line-height: 16px; font-size: 12px;&quot;&gt;&lt;div style=&quot;line-height: 16px; font-size: 12px;&quot;&gt;&lt;div style=&quot;line-height: 16px; font-size: 12px;&quot;&gt;&lt;div style=&quot;line-height: 16px; font-size: 12px;&quot;&gt;listaTextos.&lt;span style=&quot;font-size: 12px;&quot;&gt;push_back&lt;/span&gt;(&lt;span style=&quot;font-size: 12px;&quot;&gt;&quot;Una moneda de &quot;&lt;/span&gt; &lt;span style=&quot;font-size: 12px;&quot;&gt;+&lt;/span&gt; numeroFormateado &lt;span style=&quot;font-size: 12px;&quot;&gt;+&lt;/span&gt;  &lt;span style=&quot;font-size: 12px;&quot;&gt;&quot;$&lt;/span&gt;&lt;span style=&quot;font-size: 12px;&quot;&gt;\n&lt;/span&gt;&lt;span style=&quot;font-size: 12px;&quot;&gt;&quot;&lt;/span&gt;)&lt;/div&gt;&lt;/div&gt;&lt;/div&gt;&lt;/div&gt;&lt;/div&gt;&lt;/div&gt;&lt;/div&gt;&lt;/div&gt;" style="whiteSpace=wrap;html=1;fontFamily=Helvetica;fontStyle=0;fontColor=#FFFFFF;fontSize=12;labelBackgroundColor=default;" vertex="1" parent="1">
                    <mxGeometry x="1775" y="845" width="230" height="94.62" as="geometry"/>
                </mxCell>
                <mxCell id="124" value="Else" style="text;html=1;align=center;verticalAlign=middle;resizable=0;points=[];autosize=1;strokeColor=none;fillColor=none;fontSize=13;fontFamily=Helvetica;fontColor=#FFFFFF;labelBackgroundColor=default;fontStyle=0" vertex="1" parent="1">
                    <mxGeometry x="930" y="995" width="50" height="30" as="geometry"/>
                </mxCell>
                <mxCell id="137" style="edgeStyle=none;rounded=0;html=1;exitX=0.5;exitY=1;exitDx=0;exitDy=0;entryX=0.5;entryY=0;entryDx=0;entryDy=0;labelBackgroundColor=default;strokeWidth=3;fontFamily=Helvetica;fontSize=25;fontColor=#FFFFFF;endArrow=none;endFill=0;fontStyle=0" edge="1" parent="1" source="127" target="134">
                    <mxGeometry relative="1" as="geometry"/>
                </mxCell>
                <mxCell id="127" value="&lt;div style=&quot;font-size: 12px; line-height: 16px;&quot;&gt;&lt;div&gt;&lt;span style=&quot;&quot;&gt;&amp;lt;&amp;lt;&amp;lt; La cantidad de vuelto dada al Cliente: + Vuelto&lt;/span&gt;&lt;/div&gt;&lt;/div&gt;" style="rounded=1;whiteSpace=wrap;html=1;glass=0;strokeColor=default;fontFamily=Helvetica;fontSize=12;fontColor=#FFFFFF;fillColor=default;fontStyle=0;labelBackgroundColor=default;" vertex="1" parent="1">
                    <mxGeometry x="392.0799999999999" y="1080" width="288.65" height="60" as="geometry"/>
                </mxCell>
                <mxCell id="99" style="edgeStyle=none;html=1;entryX=0.5;entryY=0;entryDx=0;entryDy=0;strokeWidth=3;endArrow=none;endFill=0;exitX=0.5;exitY=1;exitDx=0;exitDy=0;fillColor=#e51400;strokeColor=#B20000;fontFamily=Helvetica;fontStyle=0;fontColor=#FFFFFF;fontSize=13;labelBackgroundColor=default;" edge="1" parent="1" source="105" target="127">
                    <mxGeometry relative="1" as="geometry">
                        <mxPoint x="535.8180981586681" y="928.8346153846153" as="sourcePoint"/>
                        <mxPoint x="535.8180981586681" y="1023.45" as="targetPoint"/>
                    </mxGeometry>
                </mxCell>
                <mxCell id="100" value="i &amp;gt; 5" style="edgeLabel;html=1;align=center;verticalAlign=middle;resizable=0;points=[];fontSize=13;fontFamily=Helvetica;fontColor=#FFFFFF;fontStyle=0;labelBackgroundColor=default;" vertex="1" connectable="0" parent="99">
                    <mxGeometry x="0.0192" y="1" relative="1" as="geometry">
                        <mxPoint x="1" as="offset"/>
                    </mxGeometry>
                </mxCell>
                <mxCell id="130" value="" style="edgeStyle=none;html=1;strokeWidth=3;endArrow=none;endFill=0;rounded=0;fillColor=#6d8764;strokeColor=#3A5431;fontFamily=Helvetica;fontStyle=0;fontColor=#FFFFFF;fontSize=13;labelBackgroundColor=default;entryX=1;entryY=0.5;entryDx=0;entryDy=0;" edge="1" parent="1" target="132">
                    <mxGeometry relative="1" as="geometry">
                        <mxPoint x="594.9964239821566" y="1319.996923076923" as="sourcePoint"/>
                        <Array as="points">
                            <mxPoint x="595" y="1430"/>
                            <mxPoint x="1007" y="1430"/>
                            <mxPoint x="1007" y="1297"/>
                        </Array>
                        <mxPoint x="895.0831282274221" y="1430.5587451740662" as="targetPoint"/>
                    </mxGeometry>
                </mxCell>
                <mxCell id="131" value="&lt;div style=&quot;font-size: 12px; line-height: 16px;&quot;&gt;&lt;div&gt;&lt;span style=&quot;&quot;&gt;const&lt;/span&gt;&lt;span style=&quot;&quot;&gt; &lt;/span&gt;&lt;span style=&quot;&quot;&gt;string&lt;/span&gt;&lt;span style=&quot;&quot;&gt;&amp;amp;&lt;/span&gt;&lt;span style=&quot;&quot;&gt; &lt;/span&gt;&lt;span style=&quot;&quot;&gt;texto&lt;/span&gt;&lt;span style=&quot;&quot;&gt; &lt;/span&gt;&lt;span style=&quot;&quot;&gt;:&lt;/span&gt;&lt;span style=&quot;&quot;&gt; &lt;/span&gt;&lt;span style=&quot;&quot;&gt;listaTextos&lt;/span&gt;&lt;/div&gt;&lt;/div&gt;" style="edgeLabel;html=1;align=center;verticalAlign=middle;resizable=0;points=[];fontSize=13;fontFamily=Helvetica;fontStyle=0;fontColor=#FFFFFF;labelBackgroundColor=default;" vertex="1" connectable="0" parent="130">
                    <mxGeometry x="0.4102" y="1" relative="1" as="geometry">
                        <mxPoint x="-168" y="1" as="offset"/>
                    </mxGeometry>
                </mxCell>
                <mxCell id="132" value="&lt;div style=&quot;font-size: 12px; line-height: 16px;&quot;&gt;&lt;div style=&quot;line-height: 16px;&quot;&gt;&lt;div style=&quot;line-height: 16px;&quot;&gt;&lt;span style=&quot;&quot;&gt;&amp;gt;&amp;gt;&amp;gt; + Texto&lt;/span&gt;&lt;/div&gt;&lt;/div&gt;&lt;/div&gt;" style="whiteSpace=wrap;html=1;fontFamily=Helvetica;fontStyle=0;fontColor=#FFFFFF;fontSize=13;labelBackgroundColor=default;labelBorderColor=none;rounded=1;" vertex="1" parent="1">
                    <mxGeometry x="715" y="1234.42" width="224.44" height="124.62" as="geometry"/>
                </mxCell>
                <mxCell id="138" style="edgeStyle=none;rounded=0;html=1;exitX=0.5;exitY=1;exitDx=0;exitDy=0;labelBackgroundColor=default;strokeWidth=3;fontFamily=Helvetica;fontSize=25;fontColor=#FFFFFF;endArrow=none;endFill=0;fillColor=#e51400;strokeColor=#B20000;fontStyle=0" edge="1" parent="1" source="134">
                    <mxGeometry relative="1" as="geometry">
                        <mxPoint x="536" y="1480" as="targetPoint"/>
                    </mxGeometry>
                </mxCell>
                <mxCell id="140" value="" style="edgeStyle=none;rounded=0;html=1;labelBackgroundColor=default;strokeWidth=3;fontFamily=Helvetica;fontSize=25;fontColor=#FFFFFF;endArrow=none;endFill=0;fontStyle=0" edge="1" parent="1" source="134" target="139">
                    <mxGeometry relative="1" as="geometry"/>
                </mxCell>
                <mxCell id="134" value="for texto en listaTextos&amp;nbsp;" style="rhombus;whiteSpace=wrap;html=1;fontFamily=Helvetica;fontStyle=0;fontColor=#FFFFFF;fontSize=13;labelBackgroundColor=default;" vertex="1" parent="1">
                    <mxGeometry x="440.73" y="1210" width="191.35" height="173.46" as="geometry"/>
                </mxCell>
                <mxCell id="135" style="edgeStyle=none;html=1;exitX=0;exitY=0.5;exitDx=0;exitDy=0;strokeWidth=3;fontSize=13;endArrow=classic;endFill=1;entryX=1;entryY=0.5;entryDx=0;entryDy=0;rounded=0;endSize=0;fontFamily=Helvetica;fontStyle=0;fontColor=#FFFFFF;labelBackgroundColor=default;" edge="1" parent="1" source="132" target="134">
                    <mxGeometry relative="1" as="geometry">
                        <mxPoint x="2440.9114425756316" y="724.0384615384615" as="targetPoint"/>
                        <Array as="points"/>
                    </mxGeometry>
                </mxCell>
                <mxCell id="139" value="&lt;span&gt;&lt;font style=&quot;font-size: 22px;&quot;&gt;END&lt;/font&gt;&lt;/span&gt;" style="ellipse;whiteSpace=wrap;html=1;fontSize=13;fontColor=#FFFFFF;fontStyle=0;labelBackgroundColor=default;fontFamily=Helvetica;" vertex="1" parent="1">
                    <mxGeometry x="496.405" y="1510.19" width="80" height="80" as="geometry"/>
                </mxCell>
                <mxCell id="141" style="edgeStyle=none;rounded=0;html=1;exitX=0.5;exitY=1;exitDx=0;exitDy=0;exitPerimeter=0;entryX=1;entryY=0.5;entryDx=0;entryDy=0;labelBackgroundColor=default;strokeWidth=3;fontFamily=Helvetica;fontSize=22;fontColor=#FFFFFF;endArrow=none;endFill=0;" edge="1" parent="1" source="53" target="86">
                    <mxGeometry relative="1" as="geometry">
                        <Array as="points">
                            <mxPoint x="1365" y="200"/>
                        </Array>
                    </mxGeometry>
                </mxCell>
            </root>
        </mxGraphModel>
    </diagram>
</mxfile>